<mxfile host="Electron" modified="2023-09-25T07:02:51.799Z" agent="Mozilla/5.0 (Windows NT 10.0; Win64; x64) AppleWebKit/537.36 (KHTML, like Gecko) draw.io/21.1.2 Chrome/106.0.5249.199 Electron/21.4.3 Safari/537.36" etag="5SCptzWIhxRhsthgRMfB" version="21.1.2" type="device">
  <diagram id="3Z-C-78g_D2M4Hc5ZRfr" name="ページ1">
    <mxGraphModel dx="989" dy="582" grid="1" gridSize="10" guides="1" tooltips="1" connect="1" arrows="1" fold="1" page="0" pageScale="1" pageWidth="827" pageHeight="1169" math="1" shadow="0">
      <root>
        <mxCell id="0" />
        <mxCell id="1" parent="0" />
        <mxCell id="Hx_Fb0d7paaMFf6icbwY-47" style="edgeStyle=orthogonalEdgeStyle;shape=connector;rounded=0;orthogonalLoop=1;jettySize=auto;html=1;exitX=0;exitY=0.5;exitDx=0;exitDy=0;exitPerimeter=0;entryX=0.5;entryY=0;entryDx=0;entryDy=0;entryPerimeter=0;labelBackgroundColor=default;strokeColor=default;fontFamily=Helvetica;fontSize=11;fontColor=default;endArrow=none;endFill=0;" parent="1" source="Hx_Fb0d7paaMFf6icbwY-48" target="Hx_Fb0d7paaMFf6icbwY-50" edge="1">
          <mxGeometry relative="1" as="geometry">
            <Array as="points">
              <mxPoint x="560" y="360" />
              <mxPoint x="480" y="360" />
            </Array>
          </mxGeometry>
        </mxCell>
        <mxCell id="Hx_Fb0d7paaMFf6icbwY-74" style="edgeStyle=orthogonalEdgeStyle;shape=connector;rounded=0;orthogonalLoop=1;jettySize=auto;html=1;exitX=1;exitY=0.5;exitDx=0;exitDy=0;exitPerimeter=0;entryX=0.5;entryY=1;entryDx=0;entryDy=0;entryPerimeter=0;labelBackgroundColor=default;strokeColor=default;fontFamily=Helvetica;fontSize=24;fontColor=default;endArrow=none;endFill=0;" parent="1" source="Hx_Fb0d7paaMFf6icbwY-48" target="Hx_Fb0d7paaMFf6icbwY-50" edge="1">
          <mxGeometry x="0.0581" y="-6" relative="1" as="geometry">
            <Array as="points">
              <mxPoint x="560" y="520" />
              <mxPoint x="480" y="520" />
            </Array>
            <mxPoint as="offset" />
          </mxGeometry>
        </mxCell>
        <mxCell id="Hx_Fb0d7paaMFf6icbwY-48" value="" style="pointerEvents=1;verticalLabelPosition=bottom;shadow=0;dashed=0;align=center;html=1;verticalAlign=top;shape=mxgraph.electrical.resistors.resistor_1;direction=south;" parent="1" vertex="1">
          <mxGeometry x="550" y="390" width="20" height="100" as="geometry" />
        </mxCell>
        <mxCell id="Hx_Fb0d7paaMFf6icbwY-50" value="" style="pointerEvents=1;verticalLabelPosition=bottom;shadow=0;dashed=0;align=center;html=1;verticalAlign=top;shape=mxgraph.electrical.signal_sources.source;aspect=fixed;points=[[0.5,0,0],[1,0.5,0],[0.5,1,0],[0,0.5,0]];elSignalType=dc2;" parent="1" vertex="1">
          <mxGeometry x="450" y="410" width="60" height="60" as="geometry" />
        </mxCell>
        <mxCell id="Hx_Fb0d7paaMFf6icbwY-76" style="edgeStyle=orthogonalEdgeStyle;shape=connector;rounded=0;orthogonalLoop=1;jettySize=auto;html=1;exitX=1;exitY=0.5;exitDx=0;exitDy=0;entryX=0;entryY=0.5;entryDx=0;entryDy=0;labelBackgroundColor=default;strokeColor=default;fontFamily=Helvetica;fontSize=24;fontColor=default;endArrow=none;endFill=0;" parent="1" source="Hx_Fb0d7paaMFf6icbwY-52" target="Hx_Fb0d7paaMFf6icbwY-61" edge="1">
          <mxGeometry relative="1" as="geometry" />
        </mxCell>
        <mxCell id="Hx_Fb0d7paaMFf6icbwY-52" value="" style="verticalLabelPosition=bottom;shadow=0;dashed=0;align=center;html=1;verticalAlign=top;strokeWidth=1;shape=ellipse;perimeter=ellipsePerimeter;aspect=fixed;" parent="1" vertex="1">
          <mxGeometry x="396" y="356" width="8" height="8" as="geometry" />
        </mxCell>
        <mxCell id="Hx_Fb0d7paaMFf6icbwY-54" style="edgeStyle=orthogonalEdgeStyle;shape=connector;rounded=0;orthogonalLoop=1;jettySize=auto;html=1;exitX=0;exitY=0.5;exitDx=0;exitDy=0;exitPerimeter=0;entryX=0.5;entryY=0;entryDx=0;entryDy=0;entryPerimeter=0;labelBackgroundColor=default;strokeColor=default;fontFamily=Helvetica;fontSize=11;fontColor=default;endArrow=none;endFill=0;" parent="1" source="Hx_Fb0d7paaMFf6icbwY-55" target="Hx_Fb0d7paaMFf6icbwY-57" edge="1">
          <mxGeometry y="10" relative="1" as="geometry">
            <Array as="points">
              <mxPoint x="640" y="360" />
              <mxPoint x="720" y="360" />
            </Array>
            <mxPoint as="offset" />
          </mxGeometry>
        </mxCell>
        <mxCell id="Hx_Fb0d7paaMFf6icbwY-75" style="edgeStyle=orthogonalEdgeStyle;shape=connector;rounded=0;orthogonalLoop=1;jettySize=auto;html=1;exitX=1;exitY=0.5;exitDx=0;exitDy=0;exitPerimeter=0;entryX=0.5;entryY=1;entryDx=0;entryDy=0;entryPerimeter=0;labelBackgroundColor=default;strokeColor=default;fontFamily=Helvetica;fontSize=24;fontColor=default;endArrow=none;endFill=0;" parent="1" source="Hx_Fb0d7paaMFf6icbwY-55" target="Hx_Fb0d7paaMFf6icbwY-57" edge="1">
          <mxGeometry relative="1" as="geometry">
            <Array as="points">
              <mxPoint x="640" y="520" />
              <mxPoint x="720" y="520" />
            </Array>
          </mxGeometry>
        </mxCell>
        <mxCell id="Hx_Fb0d7paaMFf6icbwY-55" value="" style="pointerEvents=1;verticalLabelPosition=bottom;shadow=0;dashed=0;align=center;html=1;verticalAlign=top;shape=mxgraph.electrical.resistors.resistor_1;direction=south;flipH=1;" parent="1" vertex="1">
          <mxGeometry x="630" y="390" width="20" height="100" as="geometry" />
        </mxCell>
        <mxCell id="Hx_Fb0d7paaMFf6icbwY-57" value="" style="pointerEvents=1;verticalLabelPosition=bottom;shadow=0;dashed=0;align=center;html=1;verticalAlign=top;shape=mxgraph.electrical.signal_sources.source;aspect=fixed;points=[[0.5,0,0],[1,0.5,0],[0.5,1,0],[0,0.5,0]];elSignalType=dc2;direction=east;flipH=1;" parent="1" vertex="1">
          <mxGeometry x="690" y="410" width="60" height="60" as="geometry" />
        </mxCell>
        <mxCell id="Hx_Fb0d7paaMFf6icbwY-82" style="edgeStyle=orthogonalEdgeStyle;shape=connector;rounded=0;orthogonalLoop=1;jettySize=auto;html=1;exitX=1;exitY=0.5;exitDx=0;exitDy=0;labelBackgroundColor=default;strokeColor=default;fontFamily=Helvetica;fontSize=24;fontColor=default;endArrow=classic;endFill=1;entryX=0;entryY=0.667;entryDx=0;entryDy=0;entryPerimeter=0;" parent="1" source="Hx_Fb0d7paaMFf6icbwY-59" target="Hx_Fb0d7paaMFf6icbwY-50" edge="1">
          <mxGeometry relative="1" as="geometry">
            <mxPoint x="445" y="450" as="targetPoint" />
            <Array as="points">
              <mxPoint x="430" y="520" />
              <mxPoint x="430" y="450" />
            </Array>
          </mxGeometry>
        </mxCell>
        <mxCell id="Hx_Fb0d7paaMFf6icbwY-59" value="" style="verticalLabelPosition=bottom;shadow=0;dashed=0;align=center;html=1;verticalAlign=top;strokeWidth=1;shape=ellipse;perimeter=ellipsePerimeter;aspect=fixed;" parent="1" vertex="1">
          <mxGeometry x="396" y="516" width="8" height="8" as="geometry" />
        </mxCell>
        <mxCell id="Hx_Fb0d7paaMFf6icbwY-61" value="" style="verticalLabelPosition=bottom;shadow=0;dashed=0;align=center;html=1;verticalAlign=top;strokeWidth=1;shape=ellipse;perimeter=ellipsePerimeter;aspect=fixed;" parent="1" vertex="1">
          <mxGeometry x="796" y="356" width="8" height="8" as="geometry" />
        </mxCell>
        <mxCell id="Hx_Fb0d7paaMFf6icbwY-83" style="edgeStyle=orthogonalEdgeStyle;shape=connector;rounded=0;orthogonalLoop=1;jettySize=auto;html=1;exitX=0;exitY=0.5;exitDx=0;exitDy=0;entryX=0;entryY=0.667;entryDx=0;entryDy=0;entryPerimeter=0;labelBackgroundColor=default;strokeColor=default;fontFamily=Helvetica;fontSize=24;fontColor=default;endArrow=classic;endFill=1;" parent="1" source="Hx_Fb0d7paaMFf6icbwY-62" target="Hx_Fb0d7paaMFf6icbwY-57" edge="1">
          <mxGeometry relative="1" as="geometry">
            <Array as="points">
              <mxPoint x="770" y="520" />
              <mxPoint x="770" y="450" />
            </Array>
          </mxGeometry>
        </mxCell>
        <mxCell id="Hx_Fb0d7paaMFf6icbwY-62" value="" style="verticalLabelPosition=bottom;shadow=0;dashed=0;align=center;html=1;verticalAlign=top;strokeWidth=1;shape=ellipse;perimeter=ellipsePerimeter;aspect=fixed;" parent="1" vertex="1">
          <mxGeometry x="796" y="516" width="8" height="8" as="geometry" />
        </mxCell>
        <mxCell id="Hx_Fb0d7paaMFf6icbwY-67" value="" style="endArrow=classic;html=1;rounded=0;labelBackgroundColor=default;strokeColor=default;fontFamily=Helvetica;fontSize=11;fontColor=default;shape=connector;" parent="1" edge="1">
          <mxGeometry x="-1" y="-4" width="50" height="50" relative="1" as="geometry">
            <mxPoint x="400" y="420" as="sourcePoint" />
            <mxPoint x="400" y="370" as="targetPoint" />
            <mxPoint as="offset" />
          </mxGeometry>
        </mxCell>
        <mxCell id="Hx_Fb0d7paaMFf6icbwY-68" value="" style="endArrow=none;html=1;rounded=0;labelBackgroundColor=default;strokeColor=default;fontFamily=Helvetica;fontSize=11;fontColor=default;shape=connector;" parent="1" edge="1">
          <mxGeometry width="50" height="50" relative="1" as="geometry">
            <mxPoint x="400" y="510" as="sourcePoint" />
            <mxPoint x="400" y="460" as="targetPoint" />
          </mxGeometry>
        </mxCell>
        <mxCell id="Hx_Fb0d7paaMFf6icbwY-70" value="" style="endArrow=classic;html=1;rounded=0;labelBackgroundColor=default;strokeColor=default;fontFamily=Helvetica;fontSize=11;fontColor=default;shape=connector;" parent="1" edge="1">
          <mxGeometry x="-1" y="-4" width="50" height="50" relative="1" as="geometry">
            <mxPoint x="799.76" y="420" as="sourcePoint" />
            <mxPoint x="799.76" y="370" as="targetPoint" />
            <mxPoint as="offset" />
          </mxGeometry>
        </mxCell>
        <mxCell id="Hx_Fb0d7paaMFf6icbwY-71" value="" style="endArrow=none;html=1;rounded=0;labelBackgroundColor=default;strokeColor=default;fontFamily=Helvetica;fontSize=11;fontColor=default;shape=connector;" parent="1" edge="1">
          <mxGeometry width="50" height="50" relative="1" as="geometry">
            <mxPoint x="799.76" y="510" as="sourcePoint" />
            <mxPoint x="799.76" y="460" as="targetPoint" />
          </mxGeometry>
        </mxCell>
        <mxCell id="Hx_Fb0d7paaMFf6icbwY-77" value="" style="shape=waypoint;sketch=0;fillStyle=solid;size=6;pointerEvents=1;points=[];fillColor=none;resizable=0;rotatable=0;perimeter=centerPerimeter;snapToPoint=1;fontFamily=Helvetica;fontSize=11;fontColor=default;" parent="1" vertex="1">
          <mxGeometry x="460" y="340" width="40" height="40" as="geometry" />
        </mxCell>
        <mxCell id="Hx_Fb0d7paaMFf6icbwY-78" value="" style="shape=waypoint;sketch=0;fillStyle=solid;size=6;pointerEvents=1;points=[];fillColor=none;resizable=0;rotatable=0;perimeter=centerPerimeter;snapToPoint=1;fontFamily=Helvetica;fontSize=11;fontColor=default;" parent="1" vertex="1">
          <mxGeometry x="540" y="340" width="40" height="40" as="geometry" />
        </mxCell>
        <mxCell id="Hx_Fb0d7paaMFf6icbwY-79" value="" style="shape=waypoint;sketch=0;fillStyle=solid;size=6;pointerEvents=1;points=[];fillColor=none;resizable=0;rotatable=0;perimeter=centerPerimeter;snapToPoint=1;fontFamily=Helvetica;fontSize=11;fontColor=default;" parent="1" vertex="1">
          <mxGeometry x="620" y="340" width="40" height="40" as="geometry" />
        </mxCell>
        <mxCell id="Hx_Fb0d7paaMFf6icbwY-80" value="" style="shape=waypoint;sketch=0;fillStyle=solid;size=6;pointerEvents=1;points=[];fillColor=none;resizable=0;rotatable=0;perimeter=centerPerimeter;snapToPoint=1;fontFamily=Helvetica;fontSize=11;fontColor=default;" parent="1" vertex="1">
          <mxGeometry x="700" y="340" width="40" height="40" as="geometry" />
        </mxCell>
        <mxCell id="Hx_Fb0d7paaMFf6icbwY-84" value="&lt;font style=&quot;font-size: 24px;&quot;&gt;`(v_{pS}+v_{d})`&lt;/font&gt;" style="text;html=1;align=center;verticalAlign=middle;resizable=0;points=[];autosize=1;strokeColor=none;fillColor=none;fontSize=11;fontFamily=Helvetica;fontColor=default;" parent="1" vertex="1">
          <mxGeometry x="270" y="420" width="190" height="40" as="geometry" />
        </mxCell>
        <mxCell id="Hx_Fb0d7paaMFf6icbwY-85" value="&lt;font style=&quot;font-size: 24px;&quot;&gt;`(v_{pS}-v_{d})`&lt;/font&gt;" style="text;html=1;align=center;verticalAlign=middle;resizable=0;points=[];autosize=1;strokeColor=none;fillColor=none;fontSize=11;fontFamily=Helvetica;fontColor=default;" parent="1" vertex="1">
          <mxGeometry x="740" y="420" width="190" height="40" as="geometry" />
        </mxCell>
        <mxCell id="Hx_Fb0d7paaMFf6icbwY-86" value="&lt;font style=&quot;font-size: 20px;&quot;&gt;`g_{m p}(v_{pS}+v_{d})`&lt;/font&gt;" style="text;html=1;align=center;verticalAlign=middle;resizable=0;points=[];autosize=1;strokeColor=none;fillColor=none;fontSize=11;fontFamily=Helvetica;fontColor=default;" parent="1" vertex="1">
          <mxGeometry x="305" y="310" width="240" height="40" as="geometry" />
        </mxCell>
        <mxCell id="Hx_Fb0d7paaMFf6icbwY-88" value="&lt;font style=&quot;font-size: 20px;&quot;&gt;`g_{m pr}(v_{pS}-v_{d})`&lt;/font&gt;" style="text;html=1;align=center;verticalAlign=middle;resizable=0;points=[];autosize=1;strokeColor=none;fillColor=none;fontSize=11;fontFamily=Helvetica;fontColor=default;" parent="1" vertex="1">
          <mxGeometry x="625" y="310" width="240" height="40" as="geometry" />
        </mxCell>
        <mxCell id="Hx_Fb0d7paaMFf6icbwY-89" value="&lt;font style=&quot;font-size: 24px;&quot;&gt;`g_{dp}`&lt;/font&gt;" style="text;html=1;align=center;verticalAlign=middle;resizable=0;points=[];autosize=1;strokeColor=none;fillColor=none;fontSize=11;fontFamily=Helvetica;fontColor=default;" parent="1" vertex="1">
          <mxGeometry x="545" y="420" width="110" height="40" as="geometry" />
        </mxCell>
        <mxCell id="Hx_Fb0d7paaMFf6icbwY-120" value="&lt;font style=&quot;font-size: 24px;&quot;&gt;`R`&lt;/font&gt;" style="text;html=1;align=center;verticalAlign=middle;resizable=0;points=[];autosize=1;strokeColor=none;fillColor=none;fontSize=11;fontFamily=Helvetica;fontColor=default;" parent="1" vertex="1">
          <mxGeometry x="515" y="720" width="60" height="40" as="geometry" />
        </mxCell>
        <mxCell id="Hx_Fb0d7paaMFf6icbwY-122" value="" style="endArrow=none;html=1;rounded=0;labelBackgroundColor=default;strokeColor=default;fontFamily=Helvetica;fontSize=24;fontColor=default;shape=connector;exitX=0.5;exitY=0;exitDx=0;exitDy=0;" parent="1" edge="1" source="TUu5lzpl-EDTAUhvsBbz-4">
          <mxGeometry width="50" height="50" relative="1" as="geometry">
            <mxPoint x="680" y="590" as="sourcePoint" />
            <mxPoint x="680" y="520" as="targetPoint" />
          </mxGeometry>
        </mxCell>
        <mxCell id="Hx_Fb0d7paaMFf6icbwY-123" value="" style="endArrow=none;html=1;rounded=0;labelBackgroundColor=default;strokeColor=default;fontFamily=Helvetica;fontSize=24;fontColor=default;shape=connector;entryX=0;entryY=0.5;entryDx=0;entryDy=0;" parent="1" source="Hx_Fb0d7paaMFf6icbwY-151" edge="1" target="TUu5lzpl-EDTAUhvsBbz-5">
          <mxGeometry width="50" height="50" relative="1" as="geometry">
            <mxPoint x="520" y="580" as="sourcePoint" />
            <mxPoint x="640" y="630" as="targetPoint" />
          </mxGeometry>
        </mxCell>
        <mxCell id="Hx_Fb0d7paaMFf6icbwY-131" value="" style="pointerEvents=1;verticalLabelPosition=bottom;shadow=0;dashed=0;align=center;html=1;verticalAlign=top;shape=mxgraph.electrical.signal_sources.signal_ground;fontFamily=Helvetica;fontSize=24;fontColor=default;" parent="1" vertex="1">
          <mxGeometry x="497.5" y="800" width="45" height="30" as="geometry" />
        </mxCell>
        <mxCell id="Hx_Fb0d7paaMFf6icbwY-136" style="edgeStyle=orthogonalEdgeStyle;shape=connector;rounded=0;orthogonalLoop=1;jettySize=auto;html=1;labelBackgroundColor=default;strokeColor=default;fontFamily=Helvetica;fontSize=24;fontColor=default;endArrow=none;endFill=0;exitX=0;exitY=0.5;exitDx=0;exitDy=0;" parent="1" source="tBe3Rqof2ob-fRzI7KU_-30" edge="1">
          <mxGeometry relative="1" as="geometry">
            <mxPoint x="523.0000000000001" y="670" as="targetPoint" />
            <mxPoint x="660" y="670" as="sourcePoint" />
          </mxGeometry>
        </mxCell>
        <mxCell id="Hx_Fb0d7paaMFf6icbwY-145" value="" style="shape=waypoint;sketch=0;fillStyle=solid;size=6;pointerEvents=1;points=[];fillColor=none;resizable=0;rotatable=0;perimeter=centerPerimeter;snapToPoint=1;fontFamily=Helvetica;fontSize=11;fontColor=default;" parent="1" vertex="1">
          <mxGeometry x="500" y="500" width="40" height="40" as="geometry" />
        </mxCell>
        <mxCell id="Hx_Fb0d7paaMFf6icbwY-146" value="" style="shape=waypoint;sketch=0;fillStyle=solid;size=6;pointerEvents=1;points=[];fillColor=none;resizable=0;rotatable=0;perimeter=centerPerimeter;snapToPoint=1;fontFamily=Helvetica;fontSize=11;fontColor=default;" parent="1" vertex="1">
          <mxGeometry x="660" y="500" width="40" height="40" as="geometry" />
        </mxCell>
        <mxCell id="Hx_Fb0d7paaMFf6icbwY-151" value="" style="shape=waypoint;sketch=0;fillStyle=solid;size=6;pointerEvents=1;points=[];fillColor=none;resizable=0;rotatable=0;perimeter=centerPerimeter;snapToPoint=1;fontFamily=Helvetica;fontSize=11;fontColor=default;" parent="1" vertex="1">
          <mxGeometry x="500" y="610" width="40" height="40" as="geometry" />
        </mxCell>
        <mxCell id="Hx_Fb0d7paaMFf6icbwY-152" value="" style="shape=waypoint;sketch=0;fillStyle=solid;size=6;pointerEvents=1;points=[];fillColor=none;resizable=0;rotatable=0;perimeter=centerPerimeter;snapToPoint=1;fontFamily=Helvetica;fontSize=11;fontColor=default;" parent="1" vertex="1">
          <mxGeometry x="500" y="650" width="40" height="40" as="geometry" />
        </mxCell>
        <mxCell id="Hx_Fb0d7paaMFf6icbwY-155" value="&lt;font style=&quot;font-size: 24px;&quot;&gt;`v_{pS}`&lt;/font&gt;" style="text;html=1;align=center;verticalAlign=middle;resizable=0;points=[];autosize=1;strokeColor=none;fillColor=none;fontSize=11;fontFamily=Helvetica;fontColor=default;" parent="1" vertex="1">
          <mxGeometry x="490" y="310" width="110" height="40" as="geometry" />
        </mxCell>
        <mxCell id="Hx_Fb0d7paaMFf6icbwY-157" value="&lt;font style=&quot;font-size: 24px;&quot;&gt;`v_{outl}`&lt;/font&gt;" style="text;html=1;align=center;verticalAlign=middle;resizable=0;points=[];autosize=1;strokeColor=none;fillColor=none;fontSize=11;fontFamily=Helvetica;fontColor=default;" parent="1" vertex="1">
          <mxGeometry x="615" y="661" width="120" height="40" as="geometry" />
        </mxCell>
        <mxCell id="5XcIdOqlf6TmVMvbWogk-12" value="" style="shape=waypoint;sketch=0;fillStyle=solid;size=6;pointerEvents=1;points=[];fillColor=none;resizable=0;rotatable=0;perimeter=centerPerimeter;snapToPoint=1;fontFamily=Helvetica;fontSize=11;fontColor=default;" parent="1" vertex="1">
          <mxGeometry x="580" y="340" width="40" height="40" as="geometry" />
        </mxCell>
        <mxCell id="5XcIdOqlf6TmVMvbWogk-40" value="" style="endArrow=none;html=1;rounded=0;labelBackgroundColor=default;strokeColor=default;fontFamily=Helvetica;fontSize=11;fontColor=default;shape=connector;" parent="1" target="TUu5lzpl-EDTAUhvsBbz-6" edge="1">
          <mxGeometry width="50" height="50" relative="1" as="geometry">
            <mxPoint x="600" y="360" as="sourcePoint" />
            <mxPoint x="600" y="240" as="targetPoint" />
          </mxGeometry>
        </mxCell>
        <mxCell id="BeMA3lvDZmvhr9BcJiwD-22" style="edgeStyle=orthogonalEdgeStyle;shape=connector;rounded=0;orthogonalLoop=1;jettySize=auto;html=1;exitX=1;exitY=0.5;exitDx=0;exitDy=0;exitPerimeter=0;entryX=0.5;entryY=1;entryDx=0;entryDy=0;labelBackgroundColor=default;strokeColor=default;fontFamily=Helvetica;fontSize=11;fontColor=default;endArrow=none;endFill=0;" parent="1" target="Hx_Fb0d7paaMFf6icbwY-59" edge="1">
          <mxGeometry relative="1" as="geometry">
            <mxPoint x="400" y="550" as="sourcePoint" />
          </mxGeometry>
        </mxCell>
        <mxCell id="jAQnVQWnFF6PZbc4m9He-4" value="" style="endArrow=classic;html=1;rounded=0;labelBackgroundColor=default;strokeColor=default;fontFamily=Helvetica;fontSize=11;fontColor=default;shape=connector;" parent="1" edge="1">
          <mxGeometry width="50" height="50" relative="1" as="geometry">
            <mxPoint x="590" y="265" as="sourcePoint" />
            <mxPoint x="590" y="295" as="targetPoint" />
          </mxGeometry>
        </mxCell>
        <mxCell id="jAQnVQWnFF6PZbc4m9He-5" value="&lt;font style=&quot;font-size: 24px;&quot;&gt;`i_{u}`&lt;/font&gt;" style="text;html=1;align=center;verticalAlign=middle;resizable=0;points=[];autosize=1;strokeColor=none;fillColor=none;fontSize=11;fontFamily=Helvetica;fontColor=default;" parent="1" vertex="1">
          <mxGeometry x="530" y="257.5" width="90" height="40" as="geometry" />
        </mxCell>
        <mxCell id="jAQnVQWnFF6PZbc4m9He-9" value="" style="endArrow=classic;html=1;rounded=0;labelBackgroundColor=default;strokeColor=default;fontFamily=Helvetica;fontSize=11;fontColor=default;shape=connector;" parent="1" edge="1">
          <mxGeometry width="50" height="50" relative="1" as="geometry">
            <mxPoint x="529.6" y="530" as="sourcePoint" />
            <mxPoint x="529.6" y="560" as="targetPoint" />
          </mxGeometry>
        </mxCell>
        <mxCell id="jAQnVQWnFF6PZbc4m9He-10" value="" style="endArrow=classic;html=1;rounded=0;labelBackgroundColor=default;strokeColor=default;fontFamily=Helvetica;fontSize=11;fontColor=default;shape=connector;" parent="1" edge="1">
          <mxGeometry width="50" height="50" relative="1" as="geometry">
            <mxPoint x="670" y="530" as="sourcePoint" />
            <mxPoint x="670" y="560" as="targetPoint" />
          </mxGeometry>
        </mxCell>
        <mxCell id="jAQnVQWnFF6PZbc4m9He-11" value="&lt;font style=&quot;font-size: 24px;&quot;&gt;`i_{l}`&lt;/font&gt;" style="text;html=1;align=center;verticalAlign=middle;resizable=0;points=[];autosize=1;strokeColor=none;fillColor=none;fontSize=11;fontFamily=Helvetica;fontColor=default;" parent="1" vertex="1">
          <mxGeometry x="510" y="524" width="80" height="40" as="geometry" />
        </mxCell>
        <mxCell id="jAQnVQWnFF6PZbc4m9He-12" value="&lt;font style=&quot;font-size: 24px;&quot;&gt;`i_{r}`&lt;/font&gt;" style="text;html=1;align=center;verticalAlign=middle;resizable=0;points=[];autosize=1;strokeColor=none;fillColor=none;fontSize=11;fontFamily=Helvetica;fontColor=default;" parent="1" vertex="1">
          <mxGeometry x="615" y="524" width="80" height="40" as="geometry" />
        </mxCell>
        <mxCell id="TUu5lzpl-EDTAUhvsBbz-3" style="edgeStyle=orthogonalEdgeStyle;shape=connector;rounded=0;orthogonalLoop=1;jettySize=auto;html=1;exitX=0;exitY=0.5;exitDx=0;exitDy=0;entryX=1;entryY=0.5;entryDx=0;entryDy=0;labelBackgroundColor=default;strokeColor=default;fontFamily=Helvetica;fontSize=11;fontColor=default;endArrow=none;endFill=0;" parent="1" source="TUu5lzpl-EDTAUhvsBbz-1" target="Hx_Fb0d7paaMFf6icbwY-62" edge="1">
          <mxGeometry relative="1" as="geometry" />
        </mxCell>
        <mxCell id="TUu5lzpl-EDTAUhvsBbz-1" value="" style="verticalLabelPosition=bottom;shadow=0;dashed=0;align=center;html=1;verticalAlign=top;strokeWidth=1;shape=ellipse;perimeter=ellipsePerimeter;aspect=fixed;" parent="1" vertex="1">
          <mxGeometry x="836" y="516" width="8" height="8" as="geometry" />
        </mxCell>
        <mxCell id="TUu5lzpl-EDTAUhvsBbz-4" value="" style="verticalLabelPosition=bottom;shadow=0;dashed=0;align=center;html=1;verticalAlign=top;strokeWidth=1;shape=ellipse;perimeter=ellipsePerimeter;fontFamily=Helvetica;fontSize=11;fontColor=default;aspect=fixed;" parent="1" vertex="1">
          <mxGeometry x="677" y="608" width="6" height="6" as="geometry" />
        </mxCell>
        <mxCell id="TUu5lzpl-EDTAUhvsBbz-5" value="" style="verticalLabelPosition=bottom;shadow=0;dashed=0;align=center;html=1;verticalAlign=top;strokeWidth=1;shape=ellipse;perimeter=ellipsePerimeter;fontFamily=Helvetica;fontSize=11;fontColor=default;aspect=fixed;" parent="1" vertex="1">
          <mxGeometry x="677" y="627" width="6" height="6" as="geometry" />
        </mxCell>
        <mxCell id="TUu5lzpl-EDTAUhvsBbz-6" value="" style="verticalLabelPosition=bottom;shadow=0;dashed=0;align=center;html=1;verticalAlign=top;strokeWidth=1;shape=ellipse;perimeter=ellipsePerimeter;fontFamily=Helvetica;fontSize=11;fontColor=default;aspect=fixed;" parent="1" vertex="1">
          <mxGeometry x="597" y="237" width="6" height="6" as="geometry" />
        </mxCell>
        <mxCell id="TUu5lzpl-EDTAUhvsBbz-7" value="&lt;font style=&quot;font-size: 24px;&quot;&gt;`v_{outr}`&lt;/font&gt;" style="text;html=1;align=center;verticalAlign=middle;resizable=0;points=[];autosize=1;strokeColor=none;fillColor=none;fontSize=11;fontFamily=Helvetica;fontColor=default;" parent="1" vertex="1">
          <mxGeometry x="655" y="580" width="120" height="40" as="geometry" />
        </mxCell>
        <mxCell id="tBe3Rqof2ob-fRzI7KU_-7" style="edgeStyle=orthogonalEdgeStyle;shape=connector;rounded=0;orthogonalLoop=1;jettySize=auto;html=1;exitX=0.5;exitY=0;exitDx=0;exitDy=0;exitPerimeter=0;labelBackgroundColor=default;strokeColor=default;fontFamily=Helvetica;fontSize=11;fontColor=default;endArrow=none;endFill=0;" edge="1" parent="1" source="tBe3Rqof2ob-fRzI7KU_-2">
          <mxGeometry relative="1" as="geometry">
            <mxPoint x="399.9677419354839" y="550" as="targetPoint" />
          </mxGeometry>
        </mxCell>
        <mxCell id="tBe3Rqof2ob-fRzI7KU_-2" value="" style="pointerEvents=1;verticalLabelPosition=bottom;shadow=0;dashed=0;align=center;html=1;verticalAlign=top;shape=mxgraph.electrical.signal_sources.source;aspect=fixed;points=[[0.5,0,0],[1,0.5,0],[0.5,1,0],[0,0.5,0]];elSignalType=ac;" vertex="1" parent="1">
          <mxGeometry x="370" y="570" width="60" height="60" as="geometry" />
        </mxCell>
        <mxCell id="tBe3Rqof2ob-fRzI7KU_-23" style="edgeStyle=orthogonalEdgeStyle;shape=connector;rounded=0;orthogonalLoop=1;jettySize=auto;html=1;exitX=0.5;exitY=0;exitDx=0;exitDy=0;exitPerimeter=0;entryX=0.5;entryY=1;entryDx=0;entryDy=0;entryPerimeter=0;labelBackgroundColor=default;strokeColor=default;fontFamily=Helvetica;fontSize=11;fontColor=default;endArrow=none;endFill=0;" edge="1" parent="1" source="tBe3Rqof2ob-fRzI7KU_-4" target="tBe3Rqof2ob-fRzI7KU_-2">
          <mxGeometry relative="1" as="geometry" />
        </mxCell>
        <mxCell id="tBe3Rqof2ob-fRzI7KU_-4" value="" style="pointerEvents=1;verticalLabelPosition=bottom;shadow=0;dashed=0;align=center;html=1;verticalAlign=top;shape=mxgraph.electrical.signal_sources.signal_ground;fontFamily=Helvetica;fontSize=24;fontColor=default;" vertex="1" parent="1">
          <mxGeometry x="377.5" y="671" width="45" height="30" as="geometry" />
        </mxCell>
        <mxCell id="tBe3Rqof2ob-fRzI7KU_-15" style="edgeStyle=orthogonalEdgeStyle;shape=connector;rounded=0;orthogonalLoop=1;jettySize=auto;html=1;exitX=0.5;exitY=0;exitDx=0;exitDy=0;exitPerimeter=0;entryX=0.5;entryY=1;entryDx=0;entryDy=0;labelBackgroundColor=default;strokeColor=default;fontFamily=Helvetica;fontSize=11;fontColor=default;endArrow=none;endFill=0;" edge="1" parent="1" source="tBe3Rqof2ob-fRzI7KU_-9" target="TUu5lzpl-EDTAUhvsBbz-1">
          <mxGeometry relative="1" as="geometry" />
        </mxCell>
        <mxCell id="tBe3Rqof2ob-fRzI7KU_-9" value="" style="pointerEvents=1;verticalLabelPosition=bottom;shadow=0;dashed=0;align=center;html=1;verticalAlign=top;shape=mxgraph.electrical.signal_sources.source;aspect=fixed;points=[[0.5,0,0],[1,0.5,0],[0.5,1,0],[0,0.5,0]];elSignalType=ac;" vertex="1" parent="1">
          <mxGeometry x="810" y="570" width="60" height="60" as="geometry" />
        </mxCell>
        <mxCell id="tBe3Rqof2ob-fRzI7KU_-21" style="edgeStyle=orthogonalEdgeStyle;shape=connector;rounded=0;orthogonalLoop=1;jettySize=auto;html=1;exitX=0.5;exitY=0;exitDx=0;exitDy=0;exitPerimeter=0;entryX=0.5;entryY=1;entryDx=0;entryDy=0;entryPerimeter=0;labelBackgroundColor=default;strokeColor=default;fontFamily=Helvetica;fontSize=11;fontColor=default;endArrow=none;endFill=0;" edge="1" parent="1" source="tBe3Rqof2ob-fRzI7KU_-13" target="tBe3Rqof2ob-fRzI7KU_-9">
          <mxGeometry relative="1" as="geometry" />
        </mxCell>
        <mxCell id="tBe3Rqof2ob-fRzI7KU_-13" value="" style="pointerEvents=1;verticalLabelPosition=bottom;shadow=0;dashed=0;align=center;html=1;verticalAlign=top;shape=mxgraph.electrical.signal_sources.signal_ground;fontFamily=Helvetica;fontSize=24;fontColor=default;" vertex="1" parent="1">
          <mxGeometry x="817.5" y="671" width="45" height="30" as="geometry" />
        </mxCell>
        <mxCell id="tBe3Rqof2ob-fRzI7KU_-18" value="&lt;font style=&quot;font-size: 24px;&quot;&gt;`-v_{d}`&lt;/font&gt;" style="text;html=1;align=center;verticalAlign=middle;resizable=0;points=[];autosize=1;strokeColor=none;fillColor=none;fontSize=11;fontFamily=Helvetica;fontColor=default;" vertex="1" parent="1">
          <mxGeometry x="385" y="614" width="100" height="40" as="geometry" />
        </mxCell>
        <mxCell id="tBe3Rqof2ob-fRzI7KU_-19" value="&lt;font style=&quot;font-size: 24px;&quot;&gt;`+v_{d}`&lt;/font&gt;" style="text;html=1;align=center;verticalAlign=middle;resizable=0;points=[];autosize=1;strokeColor=none;fillColor=none;fontSize=11;fontFamily=Helvetica;fontColor=default;" vertex="1" parent="1">
          <mxGeometry x="745" y="614" width="110" height="40" as="geometry" />
        </mxCell>
        <mxCell id="tBe3Rqof2ob-fRzI7KU_-26" style="edgeStyle=orthogonalEdgeStyle;shape=connector;rounded=0;orthogonalLoop=1;jettySize=auto;html=1;exitX=1;exitY=0.5;exitDx=0;exitDy=0;exitPerimeter=0;entryX=0.5;entryY=0;entryDx=0;entryDy=0;entryPerimeter=0;labelBackgroundColor=default;strokeColor=default;fontFamily=Helvetica;fontSize=11;fontColor=default;endArrow=none;endFill=0;" edge="1" parent="1" source="tBe3Rqof2ob-fRzI7KU_-24" target="Hx_Fb0d7paaMFf6icbwY-131">
          <mxGeometry relative="1" as="geometry" />
        </mxCell>
        <mxCell id="tBe3Rqof2ob-fRzI7KU_-27" style="edgeStyle=orthogonalEdgeStyle;shape=connector;rounded=0;orthogonalLoop=1;jettySize=auto;html=1;exitX=0;exitY=0.5;exitDx=0;exitDy=0;exitPerimeter=0;labelBackgroundColor=default;strokeColor=default;fontFamily=Helvetica;fontSize=11;fontColor=default;endArrow=none;endFill=0;" edge="1" parent="1" source="tBe3Rqof2ob-fRzI7KU_-24" target="Hx_Fb0d7paaMFf6icbwY-145">
          <mxGeometry relative="1" as="geometry" />
        </mxCell>
        <mxCell id="tBe3Rqof2ob-fRzI7KU_-24" value="" style="pointerEvents=1;verticalLabelPosition=bottom;shadow=0;dashed=0;align=center;html=1;verticalAlign=top;shape=mxgraph.electrical.resistors.resistor_1;fontFamily=Helvetica;fontSize=11;fontColor=default;direction=south;" vertex="1" parent="1">
          <mxGeometry x="510" y="690" width="20" height="100" as="geometry" />
        </mxCell>
        <mxCell id="tBe3Rqof2ob-fRzI7KU_-30" value="" style="verticalLabelPosition=bottom;shadow=0;dashed=0;align=center;html=1;verticalAlign=top;strokeWidth=1;shape=ellipse;perimeter=ellipsePerimeter;fontFamily=Helvetica;fontSize=11;fontColor=default;aspect=fixed;" vertex="1" parent="1">
          <mxGeometry x="677" y="667" width="6" height="6" as="geometry" />
        </mxCell>
      </root>
    </mxGraphModel>
  </diagram>
</mxfile>
